<svg width="512" height="512" viewBox="0 0 512 512" xmlns="http://www.w3.org/2000/svg" fill="currentColor"><path d="m416.072 196.044-95.548.096c-15.584 0-28.524 12.68-28.524 28.264v199.404c0 15.584 12.936 30.192 28.524 30.192h.132l95.352-1.056c15.584 0 28.296-13.164 28.296-28.748l.112-199.552c0-15.636-12.704-28.6-28.344-28.6zm-56.156 13.956h16.884c4.416 0 8 3.584 8 8s-3.584 8-8 8h-16.884c-4.416 0-8-3.584-8-8s3.58-8 8-8zm-29.156.956c3-2.96 8.32-2.96 11.32 0 1.48 1.52 2.32 3.56 2.32 5.68 0 2.08-.84 4.16-2.32 5.64s-3.564 2.36-5.68 2.36c-2.084 0-4.16-.88-5.64-2.36s-2.36-3.56-2.36-5.64c.004-2.124.88-4.204 2.36-5.68zm37.596 233.224c-6.62 0-12.008-5.388-12.008-12.004s5.388-12.004 12.008-12.004 12.008 5.384 12.008 12.004-5.388 12.004-12.008 12.004zm59.644-34.18c0 2.208-1.788 4-4 4h-112c-2.212 0-4-1.792-4-4v-168c0-2.208 1.788-4 4-4h112c2.212 0 4 1.792 4 4z"/><path d="m507.888 354h-23.888v-265.528c0-18.072-14.724-30.472-32.792-30.472h-390.416c-18.076 0-32.792 12.4-32.792 30.472v265.528h-23.896c-2.208 0-4.104-.624-4.104 1.584v3.728c0 20.048 16.412 38.688 36.456 38.688h263.544v-60h-248v-244h408v244h-20v60h35.528c20.056 0 36.472-18.64 36.472-38.688v-3.728c0-2.208-1.904-1.584-4.112-1.584zm-246.252-272.808c-1.484 1.484-3.524 2.32-5.64 2.32s-4.164-.836-5.64-2.32c-1.524-1.516-2.36-3.56-2.36-5.68s.836-4.16 2.36-5.64c2.96-3 8.32-3 11.28 0 1.516 1.48 2.36 3.56 2.36 5.64 0 2.12-.844 4.16-2.36 5.68z"/></svg>